<?xml version="1.0" encoding="utf-8"?>
<!-- Generator: Adobe Illustrator 16.0.0, SVG Export Plug-In . SVG Version: 6.00 Build 0)  -->
<!DOCTYPE svg PUBLIC "-//W3C//DTD SVG 1.1//EN" "http://www.w3.org/Graphics/SVG/1.1/DTD/svg11.dtd">
<svg version="1.1" id="Layer_1" xmlns="http://www.w3.org/2000/svg" xmlns:xlink="http://www.w3.org/1999/xlink" x="0px" y="0px"
	 width="114px" height="928px" viewBox="0 0 114 928" enable-background="new 0 0 114 928" xml:space="preserve">
<rect y="903" display="none" fill="#FFFFFF" width="95" height="25"/>
<rect y="864" display="none" fill="#FFFFFF" width="114" height="30"/>
<path fill="#00488C" d="M20.91,19.85l-0.26,0.27l-0.73-0.73c1.49-1.77,1.43-4.4-0.24-6.07c-1.76-1.76-4.61-1.76-6.36,0
	c-1.76,1.76-1.75,4.6,0,6.36c1.67,1.67,4.31,1.74,6.07,0.24l0.73,0.73l-0.27,0.27L22.94,24L24,22.94L20.91,19.85z M14.38,18.62
	c-1.17-1.17-1.17-3.07,0-4.24s3.07-1.17,4.24,0s1.17,3.07,0,4.24S15.55,19.79,14.38,18.62z"/>
<path fill="#00488C" d="M18.39,56.56c-0.06-0.13-0.12-0.29-0.18-0.48s-0.09-0.4-0.09-0.63c0-0.28,0.07-0.53,0.21-0.76
	s0.32-0.45,0.54-0.66c0.21-0.21,0.45-0.42,0.69-0.63c0.25-0.21,0.48-0.45,0.69-0.73c0.22-0.27,0.39-0.57,0.54-0.9
	c0.14-0.32,0.21-0.69,0.21-1.11c0-0.44-0.08-0.82-0.25-1.15c-0.17-0.33-0.4-0.61-0.69-0.83c-0.29-0.22-0.64-0.39-1.03-0.51
	c-0.4-0.11-0.81-0.17-1.26-0.17c-0.96,0-1.88,0.26-2.77,0.78v1.88c0.74-0.72,1.51-1.08,2.32-1.08c0.25,0,0.49,0.03,0.71,0.09
	c0.22,0.06,0.42,0.15,0.59,0.27s0.31,0.28,0.41,0.46c0.1,0.18,0.15,0.4,0.15,0.64c0,0.27-0.07,0.52-0.2,0.75s-0.3,0.44-0.5,0.65
	s-0.41,0.42-0.64,0.63c-0.23,0.22-0.45,0.44-0.64,0.68c-0.2,0.23-0.36,0.48-0.5,0.75c-0.13,0.27-0.2,0.57-0.2,0.9
	c0,0.21,0.02,0.43,0.06,0.64c0.04,0.22,0.08,0.4,0.13,0.53h1.7V56.56z M18.41,59.68c0.23-0.21,0.34-0.46,0.34-0.76
	c0-0.31-0.11-0.56-0.34-0.76c-0.23-0.22-0.51-0.32-0.82-0.32c-0.32,0-0.59,0.11-0.82,0.33c-0.23,0.2-0.34,0.46-0.34,0.76
	c0,0.3,0.11,0.56,0.34,0.77c0.24,0.2,0.52,0.3,0.83,0.3C17.9,60,18.17,59.9,18.41,59.68L18.41,59.68z"/>
<path fill="#00488C" d="M18,128c-2.28,0-4.36,0.8-6,2.14V132h12v-1.86C22.36,128.8,20.28,128,18,128z M18,126c1.66,0,3-1.34,3-3
	s-1.34-3-3-3s-3,1.34-3,3S16.34,126,18,126z"/>
<path fill="#FFFFFF" d="M24.89,193.23l-2.01,2.01l-2.12-2.12l2.01-2.01c-0.25-0.06-0.5-0.11-0.77-0.11c-1.66,0-3,1.34-3,3
	c0,0.27,0.05,0.52,0.11,0.77l-4.34,4.34c-0.25-0.06-0.5-0.11-0.77-0.11c-1.66,0-3,1.34-3,3c0,0.27,0.05,0.52,0.11,0.77l2.01-2.01
	l2.12,2.12l-2.01,2.01c0.25,0.06,0.5,0.11,0.77,0.11c1.66,0,3-1.34,3-3c0-0.27-0.04-0.52-0.11-0.77l4.35-4.34
	c0.24,0.07,0.49,0.11,0.76,0.11c1.66,0,3-1.34,3-3C25,193.73,24.95,193.48,24.89,193.23z"/>
<polygon fill="#FFFFFF" points="25,341 11,341 11,343 25,343 "/>
<path fill="#FFFFFF" d="M11,372v2h14v-2H11z M11,379h14v-2H11V379z M11,384h14v-2H11V384z"/>
<polygon fill="#FFFFFF" points="25,305 19,305 19,299 17,299 17,305 11,305 11,307 17,307 17,313 19,313 19,307 25,307 "/>
<path fill="#FFFFFF" d="M18.7,409.25c0.18,0.22,0.48,0.33,0.9,0.33c0.44,0,0.79-0.16,1.04-0.47s0.37-0.66,0.37-1.05
	c0-0.32-0.1-0.57-0.31-0.77c-0.21-0.19-0.49-0.29-0.85-0.29c-0.42,0-0.76,0.14-1.03,0.42c-0.27,0.28-0.4,0.61-0.4,1
	C18.43,408.76,18.52,409.03,18.7,409.25z M15.35,414.17c0.93-0.61,1.52-0.91,1.79-0.91c0.16,0,0.24,0.09,0.24,0.27
	c0,0.36-0.29,1.55-0.86,3.58c-0.26,0.91-0.43,1.55-0.51,1.92c-0.08,0.37-0.12,0.7-0.12,0.99s0.06,0.53,0.2,0.71
	c0.13,0.18,0.33,0.27,0.59,0.27c0.21,0,0.46-0.05,0.74-0.15c0.28-0.1,0.76-0.35,1.42-0.76c0.66-0.41,1.23-0.77,1.71-1.08l0.04-0.12
	l-0.23-0.38l-0.12-0.01c-0.89,0.59-1.44,0.88-1.64,0.88c-0.07,0-0.14-0.03-0.2-0.1c-0.06-0.07-0.09-0.14-0.09-0.23
	c0-0.32,0.3-1.5,0.89-3.53c0.34-1.18,0.56-1.98,0.67-2.41c0.11-0.42,0.16-0.77,0.16-1.05c0-0.21-0.06-0.38-0.18-0.52
	s-0.27-0.2-0.44-0.2c-0.38,0-0.9,0.18-1.58,0.54c-0.67,0.36-1.61,0.97-2.82,1.84L15,413.83l0.2,0.33L15.35,414.17z"/>
<path fill="#768D99" d="M22,486c0-1.48-0.81-2.74-2-3.44v6.87C21.19,488.75,22,487.48,22,486z"/>
<polygon fill="#768D99" points="11,483.38 11,488.63 13.56,488.63 18,493 18,479 13.56,483.38 "/>
<path fill="#768D99" d="M20,479.31v1.58c2.05,0.804,3.5,2.78,3.5,5.11s-1.45,4.31-3.5,5.11v1.58c2.89-0.86,5-3.521,5-6.69
	S22.89,480.17,20,479.31z"/>
<path fill="#768D99" d="M23.5,522c0,0.39-0.05,0.771-0.13,1.14l1.22,1.224c0.26-0.74,0.41-1.53,0.41-2.36c0-3.17-2.11-5.83-5-6.688
	v1.578C22.05,517.69,23.5,519.67,23.5,522z M20,518.56v1.211l1.98,1.979C21.9,520.39,21.13,519.22,20,518.56z M24.7,527.3
	l-12.01-12.01l-1.41,1.41l2.48,2.479l-0.2,0.2H11v5.25h2.56L18,529v-5.59l2,2v0.02l0.01-0.01l1.09,1.09
	c-0.34,0.24-0.71,0.44-1.1,0.604v1.58c0.8-0.24,1.52-0.62,2.17-1.104l1.13,1.13l1.41-1.41L24.7,527.3L24.7,527.3z M18,515l-1.4,1.38
	l1.4,1.391V515z"/>
<path fill="#768D99" d="M18,565c1.11,0,2-0.9,2-2h-4C16,564.1,16.9,565,18,565z M22,559.63v-3c0-1.859-1.28-3.41-3-3.859V552
	c0-0.55-0.45-1-1-1s-1,0.45-1,1v0.771c-1.72,0.449-3,2-3,3.859v3l-2,2h12L22,559.63z"/>
<path fill="#768D99" d="M22,592.63c0-1.859-1.28-3.41-3-3.859V588c0-0.55-0.45-1-1-1s-1,0.45-1,1v0.771
	c-0.01,0-0.02,0.013-0.03,0.013L22,593.81V592.63z M18,601c1.11,0,2-0.9,2-2h-4C16,600.1,16.9,601,18,601z M24.99,599.59l-0.01,0.01
	L12.39,587L11,588.4l3.16,3.156C14.07,591.9,14,592.25,14,592.62v3l-2,2h8.22L23.6,601l1.4-1.4L24.99,599.59z"/>
<path fill="#FFFFFF" d="M24,628c-1.1,0-2,0.9-2,2s0.9,2,2,2s2-0.9,2-2S25.1,628,24,628z M12,628c-1.1,0-2,0.9-2,2s0.9,2,2,2
	s2-0.9,2-2S13.1,628,12,628z M18,628c-1.1,0-2,0.9-2,2s0.9,2,2,2s2-0.9,2-2S19.1,628,18,628z"/>
<path fill="#FFFFFF" d="M24.14,667.97L18,662l-6.14,5.97c-0.48,0.46-0.48,1.224,0,1.684s1.25,0.46,1.73,0l4.41-4.29l4.42,4.3
	c0.48,0.46,1.25,0.46,1.73,0S24.62,668.44,24.14,667.97z"/>
<path fill="#FFFFFF" d="M11.86,700.03L18,706l6.14-5.97c0.48-0.46,0.48-1.224,0-1.684s-1.25-0.46-1.73,0L18,702.64l-4.42-4.3
	c-0.48-0.46-1.25-0.46-1.73,0S11.38,699.56,11.86,700.03z"/>
<path fill="#ACBBC2" d="M18,729c-4.97,0-9,4.03-9,9s4.03,9,9,9s9-4.03,9-9S22.97,729,18,729z M19,743h-2v-6h2V743z M19,735h-2v-2h2
	V735z"/>
<rect x="17" y="811" fill="#ACBBC2" width="2" height="2"/>
<rect x="13" y="811" fill="#ACBBC2" width="2" height="2"/>
<rect x="13" y="807" fill="#ACBBC2" width="2" height="2"/>
<rect x="21" y="807" fill="#ACBBC2" width="2" height="2"/>
<rect x="21" y="811" fill="#ACBBC2" width="2" height="2"/>
<rect x="17" y="807" fill="#ACBBC2" width="2" height="2"/>
<path fill="#ACBBC2" d="M19,783v-2h2v2H19z M19,777h2v2h-2V777z M19,773h2v2h-2V773z M19,769h2v2h-2V769z M19,765h2v2h-2V765z
	 M15,781h2v2h-2V781z M15,777h2v2h-2V777z M15,773h2v2h-2V773z M15,769h2v2h-2V769z M15,765h2v2h-2V765z"/>
<path fill="#768D99" d="M23.77,841.74c-0.31-0.32-0.81-0.32-1.12,0l-6.51,6.78l-2.79-2.9c-0.31-0.32-0.81-0.32-1.12,0
	s-0.31,0.84,0,1.16l3.35,3.486c0.31,0.32,0.81,0.32,1.12,0l7.07-7.356C24.08,842.58,24.08,842.06,23.77,841.74z"/>
<path display="none" fill="#D40000" d="M57.02,876.4c0.68-0.514,1.02-1.304,1.02-2.37c0-1.05-0.34-1.84-1.02-2.36
	c-0.68-0.52-1.71-0.78-3.1-0.78h-4.2v6.29h4.21C55.31,877.18,56.34,876.92,57.02,876.4z"/>
<path display="none" fill="#D40000" d="M54.27,879.47h-4.56v7.644h4.56c1.53,0,2.66-0.313,3.4-0.94c0.73-0.63,1.1-1.59,1.1-2.89
	c0-1.304-0.369-2.271-1.1-2.88C56.93,879.78,55.8,879.47,54.27,879.47z"/>
<path display="none" fill="#D40000" d="M76.08,876.4c0.68-0.514,1.02-1.304,1.02-2.37c0-1.05-0.34-1.84-1.02-2.36
	c-0.68-0.52-1.71-0.78-3.1-0.78h-4.201v6.29h4.201C74.359,877.18,75.4,876.92,76.08,876.4z"/>
<polygon display="none" fill="#D40000" points="30.28,881.729 37.99,881.729 34.13,871.35 "/>
<path display="none" fill="#D40000" d="M0,864v30h114v-30H0z M21.68,889.43H4.55v-2.146l13.27-16.33H4.87v-2.37h16.49v2.146
	L8.09,887.05h13.59V889.43z M40.79,889.43l-1.91-5.35h-9.46l-1.91,5.35h-2.99l8.01-20.85h3.22l8,20.85H40.79z M59.85,887.91
	c-1.27,1.01-3.09,1.52-5.438,1.52h-7.53v-20.85h7.25c2.16,0,3.83,0.45,5,1.34s1.763,2.17,1.763,3.813c0,1.27-0.303,2.289-0.899,3.05
	c-0.601,0.75-1.479,1.22-2.64,1.41c1.4,0.3,2.48,0.92,3.258,1.856c0.771,0.95,1.16,2.13,1.16,3.54
	C61.76,885.45,61.13,886.89,59.85,887.91z M78.91,887.91c-1.27,1.01-3.09,1.52-5.439,1.52h-7.531v-20.85h7.25
	c2.16,0,3.83,0.45,5,1.34s1.764,2.17,1.764,3.813c0,1.27-0.303,2.289-0.9,3.05c-0.6,0.75-1.479,1.22-2.64,1.41
	c1.397,0.3,2.479,0.92,3.25,1.856c0.776,0.95,1.157,2.13,1.157,3.54C80.82,885.45,80.18,886.89,78.91,887.91z M88.16,889.43h-2.84
	v-20.85h2.84V889.43z M106.33,889.43l-5.75-8.729l-5.801,8.729h-3.021l7.32-11.01l-6.49-9.85h3.12l4.938,7.486l4.979-7.486h3.021
	l-6.5,9.77l7.312,11.09H106.33L106.33,889.43z"/>
<path display="none" fill="#D40000" d="M73.33,879.47h-4.551v7.644h4.561c1.53,0,2.66-0.313,3.4-0.94c0.73-0.63,1.1-1.59,1.1-2.89
	c0-1.304-0.369-2.271-1.1-2.88C75.99,879.78,74.859,879.47,73.33,879.47z"/>
<polygon display="none" fill="#FFFFFF" points="108.641,868.57 105.63,868.57 100.65,876.06 95.71,868.57 92.59,868.57 
	99.08,878.42 91.76,889.43 94.77,889.43 100.58,880.7 106.33,889.43 109.45,889.43 102.15,878.34 "/>
<polygon display="none" fill="#FFFFFF" points="21.36,870.72 21.36,868.57 4.87,868.57 4.87,870.95 17.82,870.95 4.55,887.28 
	4.55,889.43 21.68,889.43 21.68,887.05 8.09,887.05 "/>
<path display="none" fill="#FFFFFF" d="M32.53,868.57l-8.01,20.85h2.99l1.91-5.35h9.46l1.91,5.35h2.95l-8-20.85H32.53z
	 M30.28,881.729l3.85-10.383l3.86,10.383H30.28z"/>
<path display="none" fill="#FFFFFF" d="M57.35,878.18c1.16-0.188,2.041-0.659,2.64-1.409c0.6-0.761,0.9-1.771,0.9-3.051
	c0-1.646-0.594-2.92-1.764-3.81c-1.17-0.893-2.84-1.34-5-1.34h-7.25v20.85h7.53c2.35,0,4.17-0.51,5.438-1.521
	c1.279-1.021,1.909-2.449,1.909-4.319c0-1.42-0.38-2.604-1.159-3.54C59.83,879.1,58.75,878.479,57.35,878.18z M49.72,870.89h4.21
	c1.39,0,2.42,0.264,3.1,0.78c0.68,0.521,1.02,1.313,1.02,2.36c0,1.06-0.34,1.85-1.02,2.37c-0.68,0.52-1.71,0.776-3.1,0.776h-4.2
	v-6.29L49.72,870.89L49.72,870.89z M57.67,886.17c-0.73,0.63-1.87,0.94-3.39,0.94h-4.56v-7.644h4.56c1.53,0,2.66,0.313,3.4,0.934
	c0.73,0.616,1.1,1.577,1.1,2.89C58.77,884.57,58.4,885.54,57.67,886.17z"/>
<rect x="85.33" y="963.451" display="none" fill="#FFFFFF" width="2.84" height="20.85"/>
<path display="none" fill="#FFFFFF" d="M76.41,878.18c1.16-0.188,2.04-0.659,2.64-1.409c0.601-0.761,0.9-1.771,0.9-3.051
	c0-1.646-0.591-2.92-1.761-3.81c-1.17-0.893-2.84-1.34-5-1.34h-7.25v20.85h7.531c2.35,0,4.17-0.51,5.438-1.521
	c1.271-1.021,1.908-2.449,1.908-4.319c0-1.42-0.381-2.604-1.158-3.54C78.891,879.1,77.8,878.479,76.41,878.18z M68.77,870.89h4.201
	c1.389,0,2.42,0.264,3.1,0.78c0.683,0.521,1.021,1.313,1.021,2.36c0,1.06-0.34,1.85-1.021,2.37c-0.68,0.52-1.711,0.776-3.1,0.776
	H68.77V870.89z M76.721,886.17c-0.74,0.63-1.871,0.94-3.4,0.94H68.77v-7.644h4.563c1.526,0,2.66,0.313,3.397,0.934
	c0.729,0.616,1.103,1.577,1.103,2.89C77.83,884.57,77.46,885.54,76.721,886.17z"/>
<path display="none" fill="#D40000" d="M47.52,913.34c0.56-0.438,0.84-1.1,0.84-1.979c0-0.894-0.28-1.54-0.84-1.974
	c-0.57-0.43-1.44-0.646-2.59-0.646h-3.5v5.25h3.5C46.09,913.99,46.95,913.771,47.52,913.34z"/>
<path display="none" fill="#D40000" d="M45.23,915.89h-3.79v6.36h3.8c1.28,0,2.22-0.26,2.83-0.771c0.61-0.521,0.92-1.329,0.92-2.399
	c0-1.09-0.3-1.89-0.92-2.4C47.44,916.14,46.5,915.89,45.23,915.89z"/>
<path display="none" fill="#D40000" d="M63.4,913.34c0.57-0.438,0.85-1.1,0.85-1.979c0-0.894-0.279-1.54-0.85-1.974
	c-0.563-0.43-1.43-0.646-2.58-0.646h-3.5v5.25h3.5C61.971,913.99,62.83,913.771,63.4,913.34z"/>
<polygon display="none" fill="#D40000" points="25.23,917.78 31.66,917.78 28.44,909.13 "/>
<path display="none" fill="#D40000" d="M0,903v25h95v-25H0z M18.07,924.2H3.79v-1.8L14.85,908.8H4.06v-1.979H17.8v1.8l-11.05,13.6
	h11.32V924.2z M33.99,924.2l-1.59-4.46h-7.89l-1.59,4.46h-2.49l6.68-17.38h2.68l6.66,17.38H33.99z M49.88,922.92
	c-1.06,0.85-2.58,1.28-4.53,1.28h-6.27v-17.38h6.04c1.8,0,3.19,0.37,4.17,1.12c0.97,0.736,1.46,1.8,1.46,3.18
	c0,1.05-0.25,1.9-0.75,2.53s-1.23,1.02-2.2,1.188c1.16,0.24,2.06,0.75,2.71,1.55c0.64,0.78,0.96,1.771,0.96,2.95
	C51.47,920.87,50.94,922.07,49.88,922.92z M65.75,922.92c-1.061,0.85-2.57,1.28-4.529,1.28H54.94v-17.38h6.041
	c1.799,0,3.189,0.37,4.17,1.12c0.973,0.736,1.473,1.8,1.473,3.18c0,1.05-0.25,1.9-0.75,2.53s-1.229,1.02-2.21,1.188
	c1.157,0.24,2.067,0.75,2.71,1.55c0.646,0.78,0.97,1.771,0.97,2.95C67.35,920.87,66.82,922.07,65.75,922.92z M73.471,924.2H71.1
	v-17.38h2.371V924.2z M88.609,924.2l-4.789-7.28l-4.84,7.28h-2.51l6.1-9.18l-5.4-8.2h2.6l4.11,6.236l4.149-6.236h2.511l-5.41,8.14
	l6.091,9.25h-2.611V924.2L88.609,924.2z"/>
<path display="none" fill="#D40000" d="M61.109,915.89H57.31v6.36h3.799c1.271,0,2.211-0.26,2.83-0.771
	c0.607-0.521,0.92-1.329,0.92-2.399c0-1.09-0.313-1.89-0.92-2.4C63.32,916.14,62.38,915.89,61.109,915.89z"/>
<polygon display="none" fill="#FFFFFF" points="90.529,906.81 88.02,906.81 83.87,913.06 79.76,906.81 77.16,906.81 82.561,915.01 
	76.471,924.2 78.971,924.2 83.82,916.92 88.609,924.2 91.21,924.2 85.12,914.95 "/>
<polygon display="none" fill="#FFFFFF" points="17.8,908.61 17.8,906.81 4.06,906.81 4.06,908.8 14.85,908.8 3.79,922.4 3.79,924.2 
	18.07,924.2 18.07,922.21 6.75,922.21 "/>
<path display="none" fill="#FFFFFF" d="M27.11,906.81l-6.68,17.384h2.49l1.59-4.462h7.89l1.59,4.462h2.46l-6.66-17.384H27.11z
	 M25.23,917.78l3.21-8.65l3.21,8.65H25.23z"/>
<path display="none" fill="#FFFFFF" d="M47.8,914.83c0.96-0.17,1.7-0.56,2.2-1.19c0.5-0.63,0.75-1.47,0.75-2.526
	c0-1.381-0.48-2.44-1.46-3.184c-0.98-0.75-2.37-1.12-4.17-1.12h-6.04v17.384h6.28c1.96,0,3.48-0.434,4.53-1.28
	c1.06-0.854,1.59-2.05,1.59-3.59c0-1.17-0.32-2.17-0.96-2.95C49.86,915.58,48.96,915.07,47.8,914.83z M41.43,908.74h3.5
	c1.15,0,2.02,0.22,2.59,0.646c0.56,0.434,0.84,1.08,0.84,1.974c0,0.88-0.28,1.54-0.84,1.979c-0.57,0.43-1.44,0.65-2.59,0.65h-3.5
	V908.74z M48.06,921.47c-0.61,0.521-1.55,0.78-2.83,0.78h-3.79v-6.36h3.8c1.28,0,2.22,0.264,2.83,0.78
	c0.61,0.51,0.92,1.313,0.92,2.4C48.97,920.14,48.67,920.95,48.06,921.47z"/>
<rect x="71.1" y="906.81" display="none" fill="#FFFFFF" width="2.371" height="17.384"/>
<path display="none" fill="#FFFFFF" d="M63.67,914.83c0.971-0.17,1.71-0.56,2.21-1.19c0.5-0.63,0.75-1.47,0.75-2.526
	c0-1.381-0.489-2.44-1.47-3.184c-0.98-0.75-2.37-1.12-4.17-1.12h-6.04v17.384h6.28c1.959,0,3.47-0.434,4.526-1.28
	c1.07-0.854,1.603-2.05,1.603-3.59c0-1.17-0.319-2.17-0.969-2.95C65.74,915.58,64.83,915.07,63.67,914.83z M57.31,908.74h3.5
	c1.16,0,2.02,0.22,2.58,0.646c0.566,0.434,0.85,1.08,0.85,1.974c0,0.88-0.28,1.54-0.85,1.979c-0.563,0.43-1.434,0.65-2.58,0.65h-3.5
	V908.74z M63.939,921.47c-0.619,0.521-1.563,0.78-2.83,0.78H57.31v-6.36h3.799c1.271,0,2.211,0.264,2.83,0.78
	c0.607,0.51,0.92,1.313,0.92,2.4C64.859,920.14,64.55,920.95,63.939,921.47z"/>
<path fill="#F3A914" d="M23,84H13c-0.55,0-1,0.45-1,1v10c0,0.55,0.45,1,1,1h10c0.55,0,1-0.45,1-1V85C24,84.45,23.55,84,23,84z
	 M21.02,93.82h-6.03v-1.23l3.54-4.81H15.2v-1.6h5.7v1.35l-3.44,4.69h3.57v1.6H21.02z"/>
<polygon fill="#FFFFFF" points="25,227 19.63,227 21.63,229.01 19,231.64 20.36,233 22.99,230.37 25,232.37 "/>
<polygon fill="#FFFFFF" points="15.64,235 13.01,237.63 11,235.63 11,241 16.37,241 14.37,239 17,236.36 "/>
<polygon fill="#FFFFFF" points="25,264.36 23.64,263 21.01,265.63 19,263.63 19,269 24.37,269 22.37,267 "/>
<polygon fill="#FFFFFF" points="13.63,273.01 11,275.64 12.36,277 14.99,274.37 17,276.37 17,271 11.63,271 "/>
<path fill="#00488C" d="M22.35,158.06l-1.06,1.06c0.74,0.79,1.21,1.82,1.21,2.98c0,2.44-2.02,4.42-4.5,4.42s-4.5-1.98-4.5-4.42
	c0-1.16,0.47-2.19,1.21-2.98l-1.06-1.06c-1.02,1.05-1.65,2.47-1.65,4.04c0,3.26,2.69,5.9,6,5.9s6-2.64,6-5.9
	C24,160.54,23.37,159.12,22.35,158.06z M19,156h-2v6h2V156z"/>
<path fill="#FFFFFF" d="M96.391,56.56c-0.061-0.13-0.121-0.29-0.181-0.48s-0.09-0.4-0.09-0.63c0-0.28,0.069-0.53,0.21-0.76
	s0.32-0.45,0.54-0.66c0.21-0.21,0.45-0.42,0.69-0.63c0.25-0.21,0.479-0.45,0.688-0.73c0.223-0.27,0.393-0.57,0.54-0.9
	c0.142-0.32,0.21-0.69,0.21-1.11c0-0.44-0.08-0.82-0.25-1.15c-0.17-0.33-0.398-0.61-0.688-0.83c-0.291-0.22-0.644-0.39-1.031-0.51
	C96.63,48.06,96.221,48,95.779,48c-0.959,0-1.879,0.26-2.771,0.78v1.88c0.74-0.72,1.512-1.08,2.32-1.08c0.25,0,0.488,0.03,0.71,0.09
	c0.22,0.06,0.42,0.15,0.59,0.27s0.312,0.28,0.41,0.46c0.103,0.18,0.147,0.4,0.147,0.64c0,0.27-0.067,0.52-0.199,0.75
	c-0.131,0.23-0.301,0.44-0.5,0.65c-0.198,0.21-0.408,0.42-0.641,0.63c-0.229,0.22-0.449,0.44-0.641,0.68
	c-0.2,0.23-0.359,0.48-0.5,0.75c-0.13,0.27-0.2,0.57-0.2,0.9c0,0.21,0.021,0.43,0.062,0.64c0.039,0.22,0.08,0.4,0.132,0.53h1.688
	v-0.01H96.391z M96.41,59.68c0.23-0.21,0.34-0.46,0.34-0.76c0-0.31-0.109-0.56-0.34-0.76c-0.23-0.22-0.51-0.32-0.82-0.32
	c-0.32,0-0.59,0.11-0.82,0.33c-0.229,0.2-0.34,0.46-0.34,0.76c0,0.3,0.11,0.56,0.34,0.77c0.24,0.2,0.521,0.3,0.83,0.3
	C95.9,60,96.17,59.9,96.41,59.68L96.41,59.68z"/>
<path fill="#FFFFFF" d="M96,128c-2.279,0-4.359,0.8-6,2.14V132h12v-1.86C100.359,128.8,98.279,128,96,128z M96,126
	c1.66,0,3-1.34,3-3s-1.34-3-3-3s-3,1.34-3,3S94.34,126,96,126z"/>
<path fill="#FFFFFF" d="M101,84H91c-0.55,0-1,0.45-1,1v10c0,0.55,0.45,1,1,1h10c0.55,0,1-0.45,1-1V85C102,84.45,101.55,84,101,84z
	 M99.02,93.82H92.99v-1.23l3.539-4.81H93.2v-1.6h5.7v1.35l-3.44,4.69h3.569v1.6H99.02z"/>
<path fill="#FFFFFF" d="M100.35,158.06l-1.06,1.06c0.739,0.79,1.21,1.82,1.21,2.98c0,2.44-2.02,4.42-4.5,4.42s-4.5-1.98-4.5-4.42
	c0-1.16,0.471-2.19,1.21-2.98l-1.06-1.06c-1.021,1.05-1.65,2.47-1.65,4.04c0,3.26,2.689,5.9,6,5.9s6-2.64,6-5.9
	C102,160.54,101.37,159.12,100.35,158.06z M97,156h-2v6h2V156z"/>
<path fill="#FFFFFF" d="M22.76,452.13c-0.82,1.83-2.62,3.13-4.76,3.13c-2.9,0-5.25-2.35-5.25-5.25c0-2.896,2.35-5.25,5.25-5.25
	c1.45,0,2.75,0.604,3.69,1.563l0,0l-2.82,2.816l6.13-0.01V443l-2.06,2.06c0,0-0.01,0.014-0.02,0.014C21.66,443.8,19.93,443,18,443
	c-3.86,0-7,3.14-7,7c0,3.87,3.14,7,7,7c3.12,0,5.74-2.05,6.64-4.87H22.76z"/>
<path fill="#ACBBC2" d="M61.5,837h-15c-0.83,0-1.5,0.67-1.5,1.5v15c0,0.83,0.67,1.5,1.5,1.5h15c0.83,0,1.5-0.67,1.5-1.5v-15
	C63,837.67,62.33,837,61.5,837z M61,853H47v-12h14V853z M51,844h-2v2h2V844z M59,844h-2v2h2V844z M55,844h-2v2h2V844z M55,848h-2v2
	h2V848z M51,848h-2v2h2V848z M59,848h-2v2h2V848z"/>
<path fill="#FFFFFF" d="M58.79,807.22l-2.19,2.19l-2.01-2.01l2.19-2.184c-1.21-0.45-2.62-0.188-3.59,0.78
	c-1.02,1.021-1.25,2.521-0.71,3.771L49,813.229L50.77,815l3.48-3.479c1.25,0.539,2.74,0.303,3.76-0.711
	C58.98,809.84,59.23,808.43,58.79,807.22z"/>
<path fill="#768D99" d="M55,777v-5.21c0.88-0.39,1.5-1.26,1.5-2.29c0-1.38-1.12-2.5-2.5-2.5s-2.5,1.12-2.5,2.5
	c0,1.021,0.62,1.9,1.5,2.29V777h-3l4,4l4-4H55z"/>
<path fill="#768D99" d="M53,735v5.21c-0.88,0.39-1.5,1.26-1.5,2.29c0,1.38,1.12,2.5,2.5,2.5s2.5-1.12,2.5-2.5
	c0-1.021-0.62-1.9-1.5-2.29V735h3l-4-4l-4,4H53z"/>
<path fill="#768D99" d="M61.68,695.71c-0.42-0.45-1.109-0.45-1.529,0l-8.447,8.91l-3.84-4.05c-0.42-0.45-1.11-0.45-1.53,0
	s-0.43,1.17,0,1.62l4.6,4.856c0.21,0.22,0.49,0.33,0.77,0.33c0.28,0,0.56-0.106,0.77-0.33l9.208-9.71
	C62.109,696.88,62.109,696.16,61.68,695.71z"/>
<path fill="#FFFFFF" d="M98.91,19.85l-0.26,0.27l-0.73-0.73c1.49-1.77,1.43-4.4-0.24-6.07c-1.76-1.76-4.609-1.76-6.359,0
	c-1.76,1.76-1.75,4.6,0,6.36c1.673,1.67,4.313,1.74,6.07,0.24l0.729,0.73l-0.271,0.27l3.09,3.08L102,22.94L98.91,19.85z
	 M92.38,18.62c-1.17-1.17-1.17-3.07,0-4.24s3.07-1.17,4.24,0s1.17,3.07,0,4.24S93.55,19.79,92.38,18.62z"/>
<path fill="#FFFFFF" d="M104.192,490.672c0,0-0.105,0.271-0.246,0c0,0-1.574-4.752-5.411-3.555v1.475c0,0-0.063,0.867-0.818,0.303
	l-3.773-3.258c0,0-0.801-0.436,0.049-1.031l3.813-3.276c0,0,0.574-0.409,0.712,0.262l0.004,1.591
	C98.521,483.184,105.673,483.525,104.192,490.672z"/>
<g>
	<path fill="#FFFFFF" d="M2.904,886.484v-6.533c-0.161,0.069-0.327,0.138-0.498,0.205c-0.361-0.517-0.728-0.971-1.099-1.361
		c1.494-0.586,2.415-1.221,2.761-1.904H1.439v-1.436h0.908c-0.293-0.464-0.581-0.869-0.864-1.217c0.527-0.507,1.06-1.264,1.597-2.27
		h1.89c-0.161,0.361-0.33,0.703-0.505,1.025h4.094v1.449H6.515c-0.024,0.357-0.063,0.694-0.117,1.012h2.6v1.436H6.72l2.087,1.391
		l-0.952,1.084h6.27v7.119h-1.963v-0.645H4.867v0.645H2.904z M2.67,875.455h1.846c0.049-0.303,0.083-0.64,0.103-1.012H3.556
		C3.273,874.82,2.978,875.157,2.67,875.455z M4.01,879.365h3.362c-0.62-0.58-1.194-1.096-1.721-1.545
		C5.285,878.396,4.738,878.912,4.01,879.365z M12.162,880.904H4.867v1.025h7.295V880.904z M4.867,884.303h7.295v-0.953H4.867
		V884.303z M9.232,873.053h5.845v5.479H9.232V873.053z M13.261,876.979v-2.373h-2.212v2.373H13.261z"/>
	<path fill="#FFFFFF" d="M22.196,873.258c0.713,0.977,1.436,2.031,2.168,3.164c-0.596,0.352-1.113,0.649-1.553,0.893l-0.41-0.71
		l-5.654,0.403l-0.513-1.641c0.654-0.342,1.616-1.48,2.886-3.414l1.86,0.703l-2.139,2.594l2.673-0.11
		c-0.239-0.381-0.481-0.755-0.725-1.12L22.196,873.258z M18.842,886.367h-1.831v-8.848h6.27v6.885c0,0.572-0.105,1.014-0.315,1.326
		s-0.527,0.495-0.952,0.549s-1.116,0.074-2.073,0.059c-0.137-0.566-0.293-1.147-0.469-1.742c0.483,0.029,0.864,0.043,1.143,0.043
		c0.381,0,0.615-0.068,0.703-0.205c0.088-0.136,0.132-0.293,0.132-0.469v-0.352h-2.607V886.367z M21.449,879.102h-2.607v0.836h2.607
		V879.102z M18.842,882.193h2.607v-0.836h-2.607V882.193z M28.92,875.322c0.732,0.343,1.338,0.592,1.816,0.748
		c-0.137,0.576-0.272,1.087-0.406,1.534c-0.135,0.446-0.381,0.776-0.74,0.988c-0.358,0.213-0.826,0.319-1.402,0.319h-1.509
		c-1.504,0-2.261-0.732-2.271-2.197V872.1h1.86v2.213c1.206-0.552,2.222-1.064,3.047-1.539l1.289,1.494
		c-1.06,0.484-2.505,1.07-4.336,1.758v0.455c0,0.547,0.327,0.82,0.981,0.82h0.469c0.532,0,0.839-0.154,0.919-0.462
		C28.719,876.531,28.813,876.025,28.92,875.322z M28.964,882.266c0.596,0.245,1.206,0.484,1.831,0.719
		c-0.186,1.133-0.366,1.862-0.542,2.189s-0.435,0.575-0.776,0.743c-0.342,0.169-0.767,0.255-1.274,0.261h-1.538
		c-1.504,0-2.256-0.738-2.256-2.213v-4.658h1.86v1.824c1.079-0.537,2.09-1.092,3.032-1.662l1.289,1.537
		c-1.333,0.636-2.773,1.275-4.321,1.92v0.746c0,0.597,0.278,0.895,0.835,0.895h0.615c0.43,0,0.715-0.093,0.857-0.279
		C28.717,884.103,28.847,883.429,28.964,882.266z"/>
	<path fill="#FFFFFF" d="M31.22,884.141h1.465v-4.277h11.631v4.277h1.465v1.832H31.22V884.141z M32.274,872.656h2.021v6.445h-2.021
		V872.656z M34.75,884.141h1.23v-2.49h-1.23V884.141z M39.438,871.953l2.095,0.322c-0.112,0.509-0.237,1.007-0.374,1.494h4.402
		v1.875h-5.039c-0.43,1.095-0.947,2.139-1.553,3.135c-0.459-0.302-0.967-0.595-1.523-0.879v1.758h-2.051v-7.631h2.051v5.199
		C38.427,875.586,39.091,873.828,39.438,871.953z M37.885,884.141h1.23v-2.49h-1.23V884.141z M41.664,875.908
		c1.23,0.919,2.197,1.699,2.9,2.344l-1.465,1.539c-0.771-0.762-1.689-1.568-2.754-2.418L41.664,875.908z M42.25,881.65h-1.23v2.49
		h1.23V881.65z"/>
	<path fill="#FFFFFF" d="M46.322,874.766h1.348v-2.607h1.772v2.607h0.996v1.875h-0.996v2.205l1.099-0.271
		c-0.078,0.665-0.098,1.329-0.059,1.992l-1.04,0.286v3.802c0,0.487-0.083,0.865-0.249,1.131c-0.166,0.267-0.402,0.426-0.707,0.48
		c-0.305,0.053-0.919,0.092-1.842,0.117c-0.078-0.577-0.21-1.217-0.396-1.92c0.254,0.029,0.596,0.045,1.025,0.045
		c0.254,0,0.386-0.205,0.396-0.615v-2.571l-1.392,0.358l-0.117-2.109c0.483-0.092,0.986-0.197,1.509-0.314v-2.615h-1.348V874.766z
		 M51.391,880.055h8.438v1.787h-3.281v2.227h4.043v1.787H50.512v-1.787h4.16v-2.227h-3.281V880.055z M55.199,877.447l-3.34,2.461
		l-1.201-1.377c0.967-0.635,2.041-1.422,3.223-2.359L55.199,877.447z M51.039,873.727h3.53l-0.381-1.275l2.08-0.395
		c0.171,0.566,0.32,1.123,0.447,1.67h3.669v2.959h-1.846v-1.172h-5.654v1.172h-1.846V873.727z M56.049,877.461l1.245-1.244
		c0.918,0.635,2.007,1.426,3.267,2.373l-1.274,1.377C58.886,879.645,57.807,878.809,56.049,877.461z"/>
	<path fill="#FFFFFF" d="M61.41,879.908h5.962v-5.377h-5.317v-1.934h12.949v1.934h-5.405v5.377h6.05v1.934h-6.05v4.555h-2.227
		v-4.555H61.41V879.908z M62.26,875.85l1.538-1.039c0.938,1.094,1.909,2.305,2.915,3.633l-1.772,1.172
		C63.954,878.121,63.061,876.866,62.26,875.85z M75.033,875.996c-1.035,1.241-2.129,2.461-3.281,3.662l-1.494-1.215
		c1.133-1.172,2.148-2.378,3.047-3.619L75.033,875.996z"/>
	<path fill="#FFFFFF" d="M86.796,873.756c1.504,1.465,2.896,2.905,4.175,4.32l-1.626,1.377l-1.143-1.348
		c-4.199,0.069-7.847,0.245-10.942,0.527l-0.776-1.729c1.924-1.19,3.828-2.88,5.713-5.068l1.919,1.041
		c-1.387,1.309-2.852,2.588-4.395,3.838l7.046-0.25l-1.494-1.641L86.796,873.756z M77.86,886.441v-6.871H89.14v6.871h-1.992v-0.865
		h-7.295v0.865H77.86z M87.147,881.387h-7.295v2.373h7.295V881.387z"/>
	<path fill="#FFFFFF" d="M99.43,884.5h-7.082v-1.883h2.365v-7.258l-2.432,0.549v-1.94l4.798-1.011v9.66h2.351V884.5z"/>
	<path fill="#FFFFFF" d="M100.982,883.438c0-0.365,0.139-0.666,0.418-0.9c0.277-0.234,0.609-0.352,0.996-0.352
		c0.39,0,0.72,0.12,0.988,0.359s0.402,0.537,0.402,0.893c0,0.377-0.134,0.681-0.402,0.912c-0.269,0.232-0.607,0.348-1.018,0.348
		c-0.381,0-0.707-0.119-0.979-0.358C101.118,884.1,100.982,883.8,100.982,883.438z"/>
	<path fill="#FFFFFF" d="M105.106,879.014c0-1.963,0.361-3.461,1.084-4.496s1.768-1.553,3.135-1.553
		c2.607,0,3.911,1.929,3.911,5.785c0,1.9-0.354,3.366-1.063,4.398c-0.708,1.033-1.73,1.549-3.068,1.549
		C106.439,884.697,105.106,882.804,105.106,879.014z M107.502,878.955c0,2.618,0.559,3.926,1.677,3.926
		c1.099,0,1.647-1.348,1.647-4.043c0-2.704-0.534-4.057-1.604-4.057C108.075,874.781,107.502,876.172,107.502,878.955z"/>
</g>
<text transform="matrix(1 0 0 1 -2 830.5)" display="none" font-family="'MicrosoftYaHei-Bold'" font-size="15">智能监控平台1.0</text>
<g>
	<path fill="#FFFFFF" d="M2.597,923.484v-6.533c-0.161,0.069-0.327,0.138-0.498,0.205c-0.361-0.517-0.728-0.971-1.099-1.361
		c1.494-0.586,2.415-1.221,2.761-1.904H1.132v-1.436H2.04c-0.293-0.464-0.581-0.869-0.864-1.217c0.527-0.507,1.06-1.264,1.597-2.27
		h1.89c-0.161,0.361-0.33,0.703-0.505,1.025h4.094v1.449H6.208c-0.024,0.357-0.063,0.694-0.117,1.012h2.6v1.436H6.413l2.087,1.391
		l-0.952,1.084h6.27v7.119h-1.963v-0.645H4.56v0.645H2.597z M2.362,912.455h1.846c0.049-0.303,0.083-0.64,0.103-1.012H3.249
		C2.965,911.82,2.67,912.157,2.362,912.455z M3.703,916.365h3.362c-0.62-0.58-1.194-1.096-1.721-1.545
		C4.977,915.396,4.43,915.912,3.703,916.365z M11.854,917.904H4.56v1.025h7.295V917.904z M4.56,921.303h7.295v-0.953H4.56V921.303z
		 M8.925,910.053h5.845v5.479H8.925V910.053z M12.953,913.979v-2.373h-2.212v2.373H12.953z"/>
	<path fill="#FFFFFF" d="M21.889,910.258c0.713,0.977,1.436,2.031,2.168,3.164c-0.596,0.352-1.113,0.649-1.553,0.893l-0.41-0.71
		l-5.654,0.403l-0.513-1.641c0.654-0.342,1.616-1.48,2.886-3.414l1.86,0.703l-2.139,2.594l2.673-0.11
		c-0.239-0.381-0.481-0.755-0.725-1.12L21.889,910.258z M18.534,923.367h-1.831v-8.848h6.27v6.885c0,0.572-0.105,1.014-0.315,1.326
		s-0.527,0.495-0.952,0.549s-1.116,0.074-2.073,0.059c-0.137-0.566-0.293-1.147-0.469-1.742c0.483,0.029,0.864,0.043,1.143,0.043
		c0.381,0,0.615-0.068,0.703-0.205c0.088-0.136,0.132-0.293,0.132-0.469v-0.352h-2.607V923.367z M21.142,916.102h-2.607v0.836h2.607
		V916.102z M18.534,919.193h2.607v-0.836h-2.607V919.193z M28.612,912.322c0.732,0.343,1.338,0.592,1.816,0.748
		c-0.137,0.576-0.272,1.087-0.406,1.534c-0.135,0.446-0.381,0.776-0.74,0.988c-0.358,0.213-0.826,0.319-1.402,0.319h-1.509
		c-1.504,0-2.261-0.732-2.271-2.197V909.1h1.86v2.213c1.206-0.552,2.222-1.064,3.047-1.539l1.289,1.494
		c-1.06,0.484-2.505,1.07-4.336,1.758v0.455c0,0.547,0.327,0.82,0.981,0.82h0.469c0.532,0,0.839-0.154,0.919-0.462
		C28.411,913.531,28.505,913.025,28.612,912.322z M28.656,919.266c0.596,0.245,1.206,0.484,1.831,0.719
		c-0.186,1.133-0.366,1.862-0.542,2.189s-0.435,0.575-0.776,0.743c-0.342,0.169-0.767,0.255-1.274,0.261h-1.538
		c-1.504,0-2.256-0.738-2.256-2.213v-4.658h1.86v1.824c1.079-0.537,2.09-1.092,3.032-1.662l1.289,1.537
		c-1.333,0.636-2.773,1.275-4.321,1.92v0.746c0,0.597,0.278,0.895,0.835,0.895h0.615c0.43,0,0.715-0.093,0.857-0.279
		C28.41,921.103,28.539,920.429,28.656,919.266z"/>
	<path fill="#FFFFFF" d="M30.912,921.141h1.465v-4.277h11.631v4.277h1.465v1.832H30.912V921.141z M31.967,909.656h2.021v6.445
		h-2.021V909.656z M34.442,921.141h1.23v-2.49h-1.23V921.141z M39.13,908.953l2.095,0.322c-0.112,0.509-0.237,1.007-0.374,1.494
		h4.402v1.875h-5.039c-0.43,1.095-0.947,2.139-1.553,3.135c-0.459-0.302-0.967-0.595-1.523-0.879v1.758h-2.051v-7.631h2.051v5.199
		C38.119,912.586,38.783,910.828,39.13,908.953z M37.577,921.141h1.23v-2.49h-1.23V921.141z M41.356,912.908
		c1.23,0.919,2.197,1.699,2.9,2.344l-1.465,1.539c-0.771-0.762-1.689-1.568-2.754-2.418L41.356,912.908z M41.942,918.65h-1.23v2.49
		h1.23V918.65z"/>
	<path fill="#FFFFFF" d="M46.015,911.766h1.348v-2.607h1.772v2.607h0.996v1.875h-0.996v2.205l1.099-0.271
		c-0.078,0.665-0.098,1.329-0.059,1.992l-1.04,0.286v3.802c0,0.487-0.083,0.865-0.249,1.131c-0.166,0.267-0.402,0.426-0.707,0.48
		c-0.305,0.053-0.919,0.092-1.842,0.117c-0.078-0.577-0.21-1.217-0.396-1.92c0.254,0.029,0.596,0.045,1.025,0.045
		c0.254,0,0.386-0.205,0.396-0.615v-2.571l-1.392,0.358l-0.117-2.109c0.483-0.092,0.986-0.197,1.509-0.314v-2.615h-1.348V911.766z
		 M51.083,917.055h8.438v1.787h-3.281v2.227h4.043v1.787H50.204v-1.787h4.16v-2.227h-3.281V917.055z M54.892,914.447l-3.34,2.461
		l-1.201-1.377c0.967-0.635,2.041-1.422,3.223-2.359L54.892,914.447z M50.731,910.727h3.53l-0.381-1.275l2.08-0.395
		c0.171,0.566,0.319,1.123,0.446,1.67h3.67v2.959h-1.846v-1.172h-5.654v1.172h-1.846V910.727z M55.741,914.461l1.245-1.244
		c0.918,0.635,2.007,1.426,3.267,2.373l-1.274,1.377C58.578,916.645,57.499,915.809,55.741,914.461z"/>
	<path fill="#FFFFFF" d="M61.103,916.908h5.962v-5.377h-5.317v-1.934h12.949v1.934h-5.405v5.377h6.05v1.934h-6.05v4.555h-2.227
		v-4.555h-5.962V916.908z M61.952,912.85l1.538-1.039c0.938,1.094,1.909,2.305,2.915,3.633l-1.772,1.172
		C63.646,915.121,62.753,913.866,61.952,912.85z M74.726,912.996c-1.035,1.241-2.129,2.461-3.281,3.662l-1.494-1.215
		c1.133-1.172,2.148-2.378,3.047-3.619L74.726,912.996z"/>
	<path fill="#FFFFFF" d="M86.488,910.756c1.504,1.465,2.896,2.905,4.175,4.32l-1.626,1.377l-1.143-1.348
		c-4.199,0.069-7.847,0.245-10.942,0.527l-0.776-1.729c1.924-1.19,3.828-2.88,5.713-5.068l1.919,1.041
		c-1.387,1.309-2.852,2.588-4.395,3.838l7.046-0.25l-1.494-1.641L86.488,910.756z M77.553,923.441v-6.871h11.279v6.871H86.84v-0.865
		h-7.295v0.865H77.553z M86.84,918.387h-7.295v2.373h7.295V918.387z"/>
	<path fill="#FFFFFF" d="M99.122,921.5H92.04v-1.883h2.365v-7.258l-2.432,0.549v-1.94l4.798-1.011v9.66h2.351V921.5z"/>
	<path fill="#FFFFFF" d="M100.675,920.438c0-0.365,0.139-0.666,0.418-0.9c0.277-0.234,0.609-0.352,0.996-0.352
		c0.39,0,0.72,0.12,0.988,0.359s0.402,0.537,0.402,0.893c0,0.377-0.134,0.681-0.402,0.912c-0.269,0.232-0.607,0.348-1.018,0.348
		c-0.381,0-0.707-0.119-0.979-0.358C100.811,921.1,100.675,920.8,100.675,920.438z"/>
	<path fill="#FFFFFF" d="M104.799,916.014c0-1.963,0.361-3.461,1.084-4.496s1.768-1.553,3.135-1.553
		c2.607,0,3.911,1.929,3.911,5.785c0,1.9-0.354,3.366-1.063,4.398c-0.708,1.033-1.73,1.549-3.068,1.549
		C106.132,921.697,104.799,919.804,104.799,916.014z M107.194,915.955c0,2.618,0.559,3.926,1.677,3.926
		c1.099,0,1.647-1.348,1.647-4.043c0-2.704-0.534-4.057-1.604-4.057C107.768,911.781,107.194,913.172,107.194,915.955z"/>
</g>
</svg>
